<?xml version="1.0" encoding="UTF-8"?>
<svg xmlns="http://www.w3.org/2000/svg" version="1.1" viewBox="0 0 32 32">
  <defs>
    <style>
      .cls-1 {
        fill: #ffe000;
      }
    </style>
  </defs>
  <!-- Generator: Adobe Illustrator 28.6.0, SVG Export Plug-In . SVG Version: 1.2.0 Build 709)  -->
  <g>
    <g id="Layer_1">
      <path class="cls-1" d="M31.1,26.5c1.2,1.2,1.2,3.3,0,4.5-.6.6-1.4.9-2.3.9s-1.6-.3-2.3-.9l-10.5-10.5-10.5,10.5c-.6.6-1.4.9-2.3.9s-1.6-.3-2.3-.9c-1.2-1.2-1.2-3.3,0-4.5l10.5-10.5L.9,5.5C-.3,4.2-.3,2.2.9.9,2.2-.3,4.2-.3,5.5.9l10.5,10.5L26.5.9c1.2-1.2,3.3-1.2,4.5,0,1.2,1.3,1.2,3.3,0,4.5l-10.5,10.5,10.5,10.5h0Z"/>
    </g>
  </g>
</svg>